<svg xmlns="http://www.w3.org/2000/svg" xmlns:xlink="http://www.w3.org/1999/xlink" viewBox="0 0 120.32 162.05"><defs><style>.cls-1{fill:#fff;}.cls-2{fill:url(#linear-gradient);}</style><linearGradient id="linear-gradient" x1="74.02" y1="-3.34" x2="50.78" y2="114.74" gradientUnits="userSpaceOnUse"><stop offset="0" stop-color="#fff"/><stop offset="0.14" stop-color="#fdfdfd"/><stop offset="1" stop-color="#f1f1f1"/></linearGradient></defs><g id="Layer_2" data-name="Layer 2"><g id="Layer_1-2" data-name="Layer 1"><circle class="cls-1" cx="60.16" cy="60.16" r="15.04" transform="translate(-24.92 60.16) rotate(-45)"/><path class="cls-1" d="M63.22.08A60.14,60.14,0,0,0,0,60.16v99.6a2.29,2.29,0,0,0,3.94,1.58l16.5-17.19a34.62,34.62,0,0,0,9.64-24v-60A30.08,30.08,0,1,1,60.16,90.24H60a14.88,14.88,0,0,0-14.88,14.84v.18a15.1,15.1,0,0,0,15,15.06h0A60.16,60.16,0,0,0,63.22.08Z"/><path class="cls-2" d="M63.22.08A60,60,0,0,0,20.36,15l-.37.33C1.89,31.64-.76,59.09,13.32,78.94l16.76,23.63V60.16A30.08,30.08,0,1,1,60.16,90.24H60a14.88,14.88,0,0,0-14.88,14.84v.18a15.1,15.1,0,0,0,15,15.06h0A60.16,60.16,0,0,0,63.22.08Z"/></g></g></svg>